<?xml version="1.0" standalone="no"?>
<!DOCTYPE svg PUBLIC "-//W3C//DTD SVG 20010904//EN"
 "http://www.w3.org/TR/2001/REC-SVG-20010904/DTD/svg10.dtd">
<svg version="1.0" xmlns="http://www.w3.org/2000/svg"
 width="400.000000pt" height="400.000000pt" viewBox="0 0 400.000000 400.000000"
 preserveAspectRatio="xMidYMid meet">

<g transform="translate(0.000000,400.000000) scale(0.100000,-0.100000)"
fill="#000000" stroke="none">
<path d="M1895 3994 c-208 -16 -390 -52 -556 -110 -57 -20 -105 -37 -106 -37
-1 -2 -32 -249 -63 -507 -11 -91 -28 -239 -39 -330 -11 -91 -29 -246 -41 -345
-12 -99 -30 -252 -40 -340 -11 -88 -29 -239 -40 -335 -11 -96 -25 -210 -31
-253 -6 -44 -8 -81 -6 -83 2 -3 33 46 67 108 35 62 72 129 83 148 11 19 31 55
45 80 14 25 64 115 112 200 48 85 102 182 120 215 18 33 81 146 140 250 59
105 122 217 140 250 18 33 84 151 146 263 63 111 165 293 227 405 63 111 127
225 142 252 63 113 79 144 74 149 -6 7 -251 27 -298 24 -20 -1 -54 -3 -76 -4z"/>
<path d="M2375 3888 c-16 -35 -64 -139 -107 -231 -43 -92 -78 -170 -78 -171 0
-2 -22 -50 -49 -107 -68 -146 -165 -354 -194 -419 -13 -30 -39 -86 -57 -125
-18 -38 -66 -141 -106 -228 -41 -87 -74 -160 -74 -161 0 -2 -22 -50 -49 -107
-68 -146 -165 -354 -194 -419 -32 -72 -77 -168 -143 -309 -30 -63 -53 -115
-51 -117 2 -2 383 346 552 505 33 31 116 108 185 171 69 63 127 117 130 120 3
3 61 57 130 120 69 63 154 142 190 176 36 33 133 123 215 199 83 76 175 161
205 190 30 28 150 138 265 245 116 106 216 198 224 205 11 11 5 20 -30 53
-237 217 -510 363 -865 461 -64 17 -69 15 -99 -51z"/>
<path d="M990 3724 c-193 -109 -452 -338 -584 -515 l-56 -76 100 -504 c115
-585 135 -683 161 -802 10 -49 19 -100 19 -114 0 -15 2 -24 5 -22 2 3 59 277
124 610 115 579 140 704 181 904 10 50 37 185 60 300 22 116 42 218 44 228 5
22 0 22 -54 -9z"/>
<path d="M3375 3271 c-120 -131 -569 -615 -575 -621 -3 -3 -170 -183 -370
-400 -200 -217 -387 -420 -415 -450 -28 -30 -84 -91 -125 -135 -40 -44 -78
-85 -84 -90 -6 -6 -63 -66 -125 -135 -63 -69 -129 -140 -145 -158 l-31 -33
110 49 c61 28 175 80 255 117 80 37 202 94 273 126 70 33 186 86 257 119 72
33 189 87 260 120 72 33 190 88 263 121 72 34 184 85 247 114 63 29 159 73
213 99 55 25 100 46 102 46 1 0 49 22 106 49 57 27 160 74 229 106 69 31 129
60 134 65 21 20 -81 334 -161 495 -90 180 -225 378 -315 462 l-23 21 -80 -87z"/>
<path d="M152 2773 c-6 -15 -24 -65 -40 -109 -43 -116 -71 -231 -92 -368 l-18
-119 58 -101 c31 -55 69 -123 85 -151 80 -146 159 -284 161 -282 1 1 -4 49
-11 107 -14 113 -44 362 -76 635 -28 242 -50 410 -54 413 -1 2 -7 -10 -13 -25z"/>
<path d="M3910 2211 c-36 -21 -96 -54 -135 -76 -38 -21 -155 -86 -260 -145
-104 -59 -212 -119 -240 -134 -61 -34 -411 -230 -680 -381 -110 -62 -227 -127
-260 -145 -33 -18 -145 -81 -250 -140 -104 -59 -212 -119 -240 -134 -145 -80
-175 -98 -175 -102 0 -4 -35 -8 585 65 94 11 249 30 345 41 96 11 247 29 335
40 88 10 241 28 340 40 99 12 248 30 330 41 83 10 168 19 188 19 37 0 39 2 63
56 40 91 92 274 116 411 18 106 22 163 22 333 0 113 -5 215 -10 226 -9 21 -10
21 -74 -15z"/>
<path d="M3595 995 c-281 -57 -335 -68 -420 -85 -49 -11 -322 -64 -605 -120
-283 -56 -555 -109 -605 -120 -49 -10 -119 -24 -155 -31 -90 -17 -102 -25 -49
-34 36 -6 1087 -213 1301 -256 53 -11 59 -10 90 12 205 143 407 356 537 567
28 45 51 84 51 87 0 8 -16 6 -145 -20z"/>
<path d="M1660 287 c5 -5 232 -134 365 -207 33 -18 79 -44 103 -58 42 -24 46
-24 120 -13 193 30 428 92 511 136 22 11 19 13 -45 19 -38 4 -141 15 -229 26
-88 10 -241 28 -340 40 -260 30 -415 49 -455 56 -19 3 -33 4 -30 1z"/>
</g>
</svg>
